<?xml version="1.0" encoding="UTF-8"?>
<!DOCTYPE svg PUBLIC "-//W3C//DTD SVG 1.1//EN" "http://www.w3.org/Graphics/SVG/1.1/DTD/svg11.dtd">
<svg xmlns="http://www.w3.org/2000/svg" version="1.1" width="162px" height="44px" style="shape-rendering:geometricPrecision; text-rendering:geometricPrecision; image-rendering:optimizeQuality; fill-rule:evenodd; clip-rule:evenodd" xmlns:xlink="http://www.w3.org/1999/xlink">
<g><path style="opacity:0.764" fill="#fafaf9" d="M 26.5,-0.5 C 28.1667,-0.5 29.8333,-0.5 31.5,-0.5C 51.2405,5.31675 57.4072,17.9834 50,37.5C 48.276,40.7303 46.276,41.0636 44,38.5C 45.5034,33.913 46.6701,29.0796 47.5,24C 47.1346,20.2372 45.968,16.7372 44,13.5C 41.8771,20.17 39.3771,26.67 36.5,33C 26.0319,36.4333 15.6986,39.9333 5.5,43.5C 3.5,43.5 1.5,43.5 -0.5,43.5C -0.5,41.5 -0.5,39.5 -0.5,37.5C 0.768387,32.408 4.10172,29.5747 9.5,29C 5.77033,28.7673 4.10366,26.7673 4.5,23C 6.22772,9.77597 13.5611,1.94263 26.5,-0.5 Z M 15.5,12.5 C 15.0586,17.219 13.5586,21.5523 11,25.5C 10.4233,20.3948 11.9233,16.0615 15.5,12.5 Z M 35.5,7.5 C 40.9244,8.89554 41.2577,10.2289 36.5,11.5C 35.5713,10.3112 35.238,8.97782 35.5,7.5 Z M 26.5,5.5 C 28.1992,5.33982 29.8659,5.50649 31.5,6C 26.8519,7.77637 22.1853,9.1097 17.5,10C 20.324,7.92117 23.324,6.42117 26.5,5.5 Z"/></g>
<g><path style="opacity:0.8" fill="#f8f8f8" d="M 161.5,21.5 C 161.5,27.5 161.5,33.5 161.5,39.5C 151.243,40.6408 140.91,40.8075 130.5,40C 129.667,39.1667 128.833,38.3333 128,37.5C 127.5,38.6667 126.667,39.5 125.5,40C 120.416,40.1471 115.416,40.3138 110.5,40.5C 106.809,39.8444 104.976,37.5111 105,33.5C 104.827,40.1673 101.66,42.1673 95.5,39.5C 94.5963,31.7128 93.2629,31.7128 91.5,39.5C 88.138,40.9672 84.9714,40.6338 82,38.5C 77.3807,41.0944 72.7141,41.0944 68,38.5C 63.9275,40.9283 59.7608,41.095 55.5,39C 54.5357,31.5521 54.2024,24.0521 54.5,16.5C 54.6667,14.1667 54.8333,11.8333 55,9.5C 55.5,9 56,8.5 56.5,8C 64.0578,7.8423 71.5578,7.67563 79,7.5C 81.3523,7.3049 83.3523,7.97157 85,9.5C 85.7504,8.87424 86.5838,8.37424 87.5,8C 95.8333,7.33333 104.167,7.33333 112.5,8C 114.897,9.72406 117.231,9.72406 119.5,8C 129.296,6.96491 133.629,11.4649 132.5,21.5C 133.971,22.3805 134.804,23.7139 135,25.5C 135.49,24.2068 135.657,22.8734 135.5,21.5C 144.167,21.5 152.833,21.5 161.5,21.5 Z"/></g>
<g><path style="opacity:1" fill="#cacac9" d="M 65.5,23.5 C 63.0504,23.298 60.717,23.6314 58.5,24.5C 57.559,19.9296 57.2256,15.263 57.5,10.5C 60.2469,10.1866 62.9135,10.52 65.5,11.5C 64.3112,12.4287 62.9778,12.762 61.5,12.5C 61.5,13.5 61.5,14.5 61.5,15.5C 66.8333,16.1667 66.8333,16.8333 61.5,17.5C 61.5,18.5 61.5,19.5 61.5,20.5C 62.8333,20.5 64.1667,20.5 65.5,20.5C 65.5,21.5 65.5,22.5 65.5,23.5 Z"/></g>
<g><path style="opacity:1" fill="#cacac9" d="M 66.5,10.5 C 68.1667,10.5 69.8333,10.5 71.5,10.5C 71.5,13.8333 71.5,17.1667 71.5,20.5C 72.675,20.281 73.675,20.6143 74.5,21.5C 71.9135,22.48 69.2469,22.8134 66.5,22.5C 66.5,18.5 66.5,14.5 66.5,10.5 Z"/></g>
<g><path style="opacity:1" fill="#c7c7c6" d="M 75.5,10.5 C 78.2469,10.1866 80.9135,10.52 83.5,11.5C 82.3112,12.4287 80.9778,12.762 79.5,12.5C 79.5,13.5 79.5,14.5 79.5,15.5C 84.8333,16.1667 84.8333,16.8333 79.5,17.5C 79.5,18.8333 79.5,20.1667 79.5,21.5C 80.552,21.3505 81.552,21.5172 82.5,22C 80.1902,22.4966 77.8568,22.6633 75.5,22.5C 75.5,18.5 75.5,14.5 75.5,10.5 Z"/></g>
<g><path style="opacity:1" fill="#c7c7c6" d="M 86.5,10.5 C 92.5368,10.1707 98.5368,10.5041 104.5,11.5C 103.675,12.3857 102.675,12.719 101.5,12.5C 101.5,15.8333 101.5,19.1667 101.5,22.5C 100.167,22.5 98.8333,22.5 97.5,22.5C 97.5,19.1667 97.5,15.8333 97.5,12.5C 95.5229,13.1495 93.6895,13.1495 92,12.5C 88.5745,13.8564 87.7411,16.1897 89.5,19.5C 91.1667,20.1667 92.8333,20.8333 94.5,21.5C 84.4228,23.5047 81.7561,19.838 86.5,10.5 Z"/></g>
<g><path style="opacity:1" fill="#c8c8c7" d="M 105.5,10.5 C 108.777,10.2161 111.943,10.5495 115,11.5C 115.756,13.8087 115.256,15.8087 113.5,17.5C 114.167,18.8333 114.833,20.1667 115.5,21.5C 112.251,23.222 110.418,22.222 110,18.5C 109.51,19.7932 109.343,21.1266 109.5,22.5C 108.167,22.5 106.833,22.5 105.5,22.5C 105.5,18.5 105.5,14.5 105.5,10.5 Z"/></g>
<g><path style="opacity:1" fill="#cacac9" d="M 121.5,9.5 C 129.673,10.5829 131.673,14.7495 127.5,22C 118.513,24.676 115.013,21.5093 117,12.5C 118.409,11.2189 119.909,10.2189 121.5,9.5 Z"/></g>
<g><path style="opacity:1" fill="#f9f9f9" d="M 121.5,12.5 C 122.5,12.5 123.5,12.5 124.5,12.5C 124.5,15.1667 124.5,17.8333 124.5,20.5C 123.178,20.67 122.011,20.3366 121,19.5C 120.297,17.0709 120.463,14.7375 121.5,12.5 Z"/></g>
<g><path style="opacity:1" fill="#13498b" d="M 39.5,12.5 C 40.4972,12.4701 41.1639,12.9701 41.5,14C 40.4958,16.3504 39.4958,18.6837 38.5,21C 30.3422,22.9971 22.3422,25.4971 14.5,28.5C 13.3877,25.3196 14.0544,22.4863 16.5,20C 24.3627,17.7673 32.0294,15.2673 39.5,12.5 Z"/></g>
<g><path style="opacity:1" fill="#d0d0d0" d="M 22.5,2.5 C 38.6562,0.668124 48.3229,7.66812 51.5,23.5C 51.4057,25.9228 50.9057,28.2562 50,30.5C 51.0381,14.5481 43.7048,5.54806 28,3.5C 15.5021,5.46316 8.66875,12.7965 7.5,25.5C 6.45661,18.7273 8.45661,12.8939 13.5,8C 16.2984,5.69553 19.2984,3.86219 22.5,2.5 Z M 15.5,12.5 C 11.9233,16.0615 10.4233,20.3948 11,25.5C 13.5586,21.5523 15.0586,17.219 15.5,12.5 Z M 35.5,7.5 C 35.238,8.97782 35.5713,10.3112 36.5,11.5C 41.2577,10.2289 40.9244,8.89554 35.5,7.5 Z M 26.5,5.5 C 23.324,6.42117 20.324,7.92117 17.5,10C 22.1853,9.1097 26.8519,7.77637 31.5,6C 29.8659,5.50649 28.1992,5.33982 26.5,5.5 Z"/></g>
<g><path style="opacity:1" fill="#ef861d" d="M 29.5,8.5 C 33.9838,8.55122 34.6505,10.3846 31.5,14C 26.7306,15.2201 22.0639,16.7201 17.5,18.5C 16.8084,16.6649 17.1417,14.8316 18.5,13C 22.307,11.5716 25.9736,10.0716 29.5,8.5 Z"/></g>
<g><path style="opacity:1" fill="#b2cb22" d="M 36.5,22.5 C 37.6595,25.5703 36.9929,28.4037 34.5,31C 23.87,34.5989 13.2033,38.0989 2.5,41.5C 1.76935,38.4861 2.43602,35.6528 4.5,33C 15.3739,29.7637 26.0406,26.2637 36.5,22.5 Z"/></g>
<g><path style="opacity:1" fill="#a1a0a0" d="M 65.5,23.5 C 66.7759,24.3864 66.7759,25.3864 65.5,26.5C 64.109,25.3554 62.7757,25.3554 61.5,26.5C 66.6063,28.3694 68.1063,31.7028 66,36.5C 62.9433,37.4505 59.7766,37.7839 56.5,37.5C 56.5,36.5 56.5,35.5 56.5,34.5C 58.5988,35.2309 60.5988,35.2309 62.5,34.5C 60.5721,32.9501 58.7387,31.2834 57,29.5C 56.4014,27.4652 56.9014,25.7985 58.5,24.5C 60.717,23.6314 63.0504,23.298 65.5,23.5 Z"/></g>
<g><path style="opacity:1" fill="#a2a1a1" d="M 71.5,23.5 C 75.2568,23.0708 78.7568,23.7375 82,25.5C 84.8457,36.3168 80.8457,39.9835 70,36.5C 67.6385,31.7295 68.1385,27.3962 71.5,23.5 Z"/></g>
<g><path style="opacity:1" fill="#9f9e9e" d="M 84.5,23.5 C 93.1667,23.5 101.833,23.5 110.5,23.5C 111.496,32.8209 112.496,32.8209 113.5,23.5C 115.167,23.5 116.833,23.5 118.5,23.5C 118.523,25.9267 119.023,28.26 120,30.5C 120.151,27.8807 120.985,25.5473 122.5,23.5C 123.152,27.931 122.485,32.2644 120.5,36.5C 118.955,37.4519 117.288,37.7852 115.5,37.5C 115.907,28.7604 114.907,28.4271 112.5,36.5C 111.311,37.4287 109.978,37.762 108.5,37.5C 107.334,33.1801 106.168,28.8467 105,24.5C 103.989,25.3366 102.822,25.67 101.5,25.5C 101.5,29.5 101.5,33.5 101.5,37.5C 99.8333,37.5 98.1667,37.5 96.5,37.5C 96.5,33.5 96.5,29.5 96.5,25.5C 94.1667,25.5 91.8333,25.5 89.5,25.5C 89.5,26.8333 89.5,28.1667 89.5,29.5C 93.5,30.1667 93.5,30.8333 89.5,31.5C 89.5,33.5 89.5,35.5 89.5,37.5C 87.8333,37.5 86.1667,37.5 84.5,37.5C 84.5,32.8333 84.5,28.1667 84.5,23.5 Z"/></g>
<g><path style="opacity:1" fill="#a2a1a1" d="M 127.5,23.5 C 129.144,23.2865 130.644,23.6198 132,24.5C 133.598,28.4612 135.098,32.4612 136.5,36.5C 135.667,36.8333 134.833,37.1667 134,37.5C 131.58,35.6021 128.746,34.6021 125.5,34.5C 125.5,35.5 125.5,36.5 125.5,37.5C 124.448,37.6495 123.448,37.4828 122.5,37C 124.267,32.5316 125.934,28.0316 127.5,23.5 Z"/></g>
<g><path style="opacity:1" fill="#a1a0a0" d="M 137.5,23.5 C 140.909,23.2493 144.242,23.5827 147.5,24.5C 148.854,27.0673 148.52,29.4006 146.5,31.5C 147.373,33.4134 148.373,35.2467 149.5,37C 147.527,37.4955 145.527,37.6621 143.5,37.5C 143.167,33.5 142.833,33.5 142.5,37.5C 140.833,37.5 139.167,37.5 137.5,37.5C 137.5,32.8333 137.5,28.1667 137.5,23.5 Z"/></g>
<g><path style="opacity:1" fill="#9b9b9a" d="M 150.5,23.5 C 153.572,23.1826 156.572,23.5159 159.5,24.5C 158.311,25.4287 156.978,25.762 155.5,25.5C 155.5,26.8333 155.5,28.1667 155.5,29.5C 160.833,30.1667 160.833,30.8333 155.5,31.5C 155.5,32.8333 155.5,34.1667 155.5,35.5C 156.978,35.238 158.311,35.5713 159.5,36.5C 156.572,37.4841 153.572,37.8174 150.5,37.5C 150.5,32.8333 150.5,28.1667 150.5,23.5 Z"/></g>
<g><path style="opacity:1" fill="#fbfbfb" d="M 74.5,25.5 C 75.4959,25.4142 76.3292,25.7476 77,26.5C 77.6667,29.1667 77.6667,31.8333 77,34.5C 76,35.8333 75,35.8333 74,34.5C 73.2642,31.408 73.4309,28.408 74.5,25.5 Z"/></g>
</svg>
